Coordinates
version=1
nRows=60
nColumns=12
inDegrees=yes

Units are S.I. units (second, meters, Newtons, ...)
Angles are in degrees

endheader
time	SC_y	SC_z	SC_x	AC_y	AC_z	AC_x	GH_y	GH_z	GH_yy	EL_x	PS_y
       0.0              -22.59           23.9          21.03          39.71          8.828         -7.233          56.98         0.7138         -6.596          132.5          60.36
  0.003052              -22.59           23.9          21.02          39.71          8.828         -7.232          56.96         0.7175         -6.581          132.5          60.37
  0.006105              -22.59           23.9          21.02          39.71          8.828         -7.231          56.94         0.7214         -6.565          132.5          60.39
  0.009157              -22.59           23.9          21.02           39.7          8.827          -7.23          56.92         0.7256         -6.548          132.4           60.4
   0.01221              -22.59           23.9          21.01           39.7          8.827          -7.23          56.89         0.7301          -6.53          132.4          60.41
   0.01526              -22.59           23.9          21.01           39.7          8.827         -7.229          56.87         0.7348         -6.511          132.4          60.43
   0.01831              -22.59           23.9          21.01           39.7          8.826         -7.228          56.84         0.7398          -6.49          132.4          60.45
   0.02137              -22.59           23.9           21.0           39.7          8.826         -7.226          56.81         0.7453         -6.468          132.4          60.46
   0.02442              -22.59           23.9           21.0           39.7          8.826         -7.225          56.77          0.751         -6.445          132.4          60.48
   0.02747               -22.6           23.9           21.0           39.7          8.825         -7.224          56.74         0.7573          -6.42          132.4           60.5
   0.03052               -22.6           23.9          20.99           39.7          8.825         -7.223           56.7         0.7639         -6.392          132.4          60.52
   0.03358               -22.6           23.9          20.99          39.69          8.824         -7.221          56.66         0.7711         -6.363          132.4          60.54
   0.03663               -22.6           23.9          20.98          39.69          8.824          -7.22          56.62         0.7788         -6.332          132.4          60.57
   0.03968               -22.6           23.9          20.98          39.69          8.823         -7.218          56.57         0.7872         -6.298          132.4           60.6
   0.04273               -22.6           23.9          20.97          39.69          8.823         -7.216          56.52         0.7963         -6.261          132.4          60.62
   0.04578               -22.6           23.9          20.96          39.69          8.822         -7.214          56.46         0.8061         -6.221          132.4          60.66
   0.04884               -22.6           23.9          20.96          39.68          8.821         -7.212           56.4         0.8167         -6.178          132.4          60.69
   0.05189               -22.6           23.9          20.95          39.68           8.82          -7.21          56.34         0.8283          -6.13          132.3          60.73
   0.05494              -22.61           23.9          20.94          39.68           8.82         -7.207          56.27          0.841         -6.079          132.3          60.77
   0.05799              -22.61           23.9          20.93          39.67          8.819         -7.204          56.19         0.8549         -6.022          132.3          60.81
   0.06105              -22.61           23.9          20.92          39.67          8.818         -7.201           56.1         0.8702          -5.96          132.3          60.86
    0.0641              -22.61          23.89          20.91          39.67          8.817         -7.198          56.01          0.887         -5.892          132.3          60.91
   0.06715              -22.61          23.89           20.9          39.66          8.815         -7.194           55.9         0.9055         -5.817          132.3          60.97
    0.0702              -22.62          23.89          20.88          39.66          8.814          -7.19          55.79          0.926         -5.733          132.2          61.04
   0.07325              -22.62          23.89          20.87          39.65          8.812         -7.185          55.66         0.9489          -5.64          132.2          61.11
   0.07631              -22.62          23.89          20.85          39.65          8.811          -7.18          55.52         0.9743         -5.537          132.2          61.19
   0.07936              -22.63          23.89          20.83          39.64          8.809         -7.174          55.36          1.003          -5.42          132.1          61.28
   0.08241              -22.63          23.89          20.81          39.63          8.807         -7.168          55.18          1.035          -5.29          132.1          61.39
   0.08546              -22.63          23.89          20.79          39.62          8.804         -7.161          54.97          1.071         -5.142          132.1           61.5
   0.08852              -22.64          23.88          20.76          39.61          8.801         -7.152          54.74          1.112         -4.975          132.0          61.63
   0.09157              -22.64          23.88          20.73           39.6          8.798         -7.143          54.48          1.159         -4.783          132.0          61.78
   0.09462              -22.65          23.88          20.69          39.59          8.795         -7.132          54.17          1.213         -4.564          131.9          61.95
   0.09767              -22.66          23.88          20.65          39.58          8.791         -7.119          53.82          1.276         -4.311          131.9          62.15
    0.1007              -22.67          23.87           20.6          39.56          8.786         -7.105          53.41          1.348         -4.016          131.8          62.38
    0.1038              -22.68          23.87          20.55          39.54           8.78         -7.088          52.94          1.433         -3.672          131.7          62.65
    0.1068              -22.69          23.86          20.48          39.51          8.773         -7.068          52.37          1.533         -3.265          131.6          62.97
    0.1099              -22.71          23.86           20.4          39.49          8.765         -7.044          51.71          1.651         -2.783          131.4          63.35
    0.1129              -22.72          23.85          20.31          39.45          8.756         -7.015          50.91          1.794         -2.204          131.3           63.8
     0.116              -22.74          23.84          20.19          39.41          8.744          -6.98          49.94          1.966         -1.504          131.1          64.35
     0.119              -22.77          23.83          20.05          39.36           8.73         -6.938          48.75          2.176        -0.6494          130.9          65.02
    0.1221               -22.8          23.82          19.88           39.3          8.713         -6.885          47.29          2.435         0.4058          130.6          65.85
    0.1251              -22.84           23.8          19.66          39.23          8.691          -6.82          45.47          2.759          1.722          130.2          66.88
    0.1282              -22.89          23.78          19.39          39.13          8.664         -6.738          43.18          3.166          3.379          129.8          68.18
    0.1312              -22.95          23.76          19.05          39.01           8.63         -6.633          40.26          3.684          5.487          129.2          69.83
    0.1343              -23.04          23.72          18.61          38.85          8.585         -6.499          36.53          4.347          8.184          128.5          71.94
    0.1374              -23.14          23.68          18.04          38.65          8.528         -6.328          31.74          5.198          11.64          127.6          74.66
    0.1404              -23.27          23.63          17.32           38.4          8.456         -6.108          25.63          6.285          16.07          126.4          78.12
    0.1435              -23.44          23.56           16.4          38.07          8.364         -5.832          17.93          7.652          21.63          124.9          82.48
    0.1465              -23.65          23.48           15.3          37.68          8.253         -5.496           8.56          9.317           28.4          123.1          87.79
    0.1496              -23.88          23.38          14.01          37.23          8.124         -5.107         -2.305          11.25          36.25          121.0          93.94
    0.1526              -24.14          23.28          12.62          36.74          7.984         -4.685         -14.07          13.34          44.76          118.8          100.6
    0.1557               -24.4          23.18          11.23          36.24          7.844         -4.263         -25.84          15.43          53.26          116.5          107.3
    0.1587              -24.63          23.08          9.941          35.79          7.715         -3.873          -36.7          17.36          61.11          114.4          113.4
    0.1618              -24.84           23.0          8.831           35.4          7.604         -3.537         -46.07          19.02          67.88          112.6          118.7
    0.1648              -25.01          22.93          7.921          35.08          7.513         -3.261         -53.77          20.39          73.44          111.1          123.1
    0.1679              -25.14          22.88          7.197          34.82           7.44         -3.042         -59.88          21.48          77.87          109.9          126.6
    0.1709              -25.24          22.84          6.631          34.62          7.383          -2.87         -64.67          22.33          81.33          109.0          129.3
     0.174              -25.32           22.8          6.189          34.46          7.339         -2.736         -68.41          22.99          84.02          108.3          131.4
     0.177              -25.39          22.78          5.844          34.34          7.304         -2.631         -71.32          23.51          86.13          107.7          133.0
    0.1801              -25.44          22.76          5.573          34.25          7.277         -2.549         -73.61          23.92          87.79          107.3          134.3
